<svg xmlns="http://www.w3.org/2000/svg" viewBox="0 0 541.3 566.7" xml:space="preserve" class="injected-svg" data-src="/svg/symbol.svg" xmlns:xlink="http://www.w3.org/1999/xlink"><linearGradient id="a-1" gradientUnits="userSpaceOnUse" x1="188.178" y1="393.285" x2="354.719" y2="297.132"><stop offset=".342" style="stop-color:#34a4dd"/><stop offset="1" style="stop-color:#cbdbf0"/></linearGradient><path fill="url(#a-1)" d="M228.7 441.8c-3.8-3.8-33.5-19.7-43.4-61.6s10.4-73.3 10.4-73.3 20.4-38.2 61.5-49.4c41.1-11.2 70 2.2 70 2.2 5 2.2 7.4 4.9 7.4 4.9 22.9 24-31.4 29.4-31.4 29.4s-32.1 3.1-51.8 38.8c-7.3 13.2-25.3 47.1-10.9 93.1l12.1 29.4-23.9-13.5z"/><path fill="#28789D" d="M218.7 376.3c-2.3-2.8-20.1-15-25.7-44.1s7.1-49.9 7.1-49.9 12.8-25.4 37.9-31.3c25.1-6 42.5 4.5 42.5 4.5 3 1.7 4.4 3.7 4.4 3.7 13.6 17.4-19.4 18.9-19.4 18.9s-19.6.7-31.9 24.4c-4.6 8.8-15.9 31.3-7.6 63.5l7 20.7-14.3-10.4z"/><linearGradient id="b-2" gradientUnits="userSpaceOnUse" x1="167.361" y1="252.274" x2="84.898" y2="235.022" gradientTransform="rotate(33.183 98.686 457.608)"><stop offset=".369" style="stop-color:#34a4dd"/><stop offset="1" style="stop-color:#8bd0ee"/></linearGradient><path fill="url(#b-2)" d="M212.3 356c-2-2.6-18.5-14.9-21.2-41.4-2.6-26.5 12-44.2 12-44.2s15.3-21.7 40.8-25.2 41.8 7.2 41.8 7.2c2.8 1.8 4.1 3.6 4.1 3.6 11.8 16.6-21.2 15.4-21.2 15.4s-19.5-.8-34.2 19.5c-5.4 7.5-18.9 26.8-13.9 56.3l4.9 19.1-13.1-10.3z"/><linearGradient id="c-3" gradientUnits="userSpaceOnUse" x1="208.873" y1="130.319" x2="415.625" y2="488.422"><stop offset="0" style="stop-color:#8bd0ee"/><stop offset=".265" style="stop-color:#5ab7e4"/><stop offset=".494" style="stop-color:#34a4dd"/><stop offset="1" style="stop-color:#3d80c2"/></linearGradient><path fill="url(#c-3)" d="M413 469.2c23.8-1.7 47.7-6.8 47.7-6.8-34.1 18.7-63 20.4-63 20.4-15.3 5.1-59.8 9.2-59.8 9.2s-34.2 4.7-77.3-6.1c-43-10.8-86.2-44.2-91.9-52.8-5.7-8.6-55.2-50-57-131.7S161 169.2 161 169.2s54-62.9 136.2-67.4 131.4 31.9 131.4 31.9c8.6 6.1 12 12.1 12 12.1 13.3 21.2 9.9 40.1.9 55-13.8 23.1-39.8 34.6-65.5 30.5-21-3.3-56.4-11.9-95.6 6.2-44.4 20.5-52.3 49.5-55.7 72-5.6 36.9 6.9 80.7 30.9 105.5 5 5.1 14.9 13.4 25.2 21.2 17.6 13.3 38.1 22.8 60.1 27.3 15.2 3.3 55.7 6.9 72.1 5.7z"/><path opacity=".8" fill="#072F42" d="M154.3 342.8s-10.3.4-17.1 8.9c0 0-5 3.4-5.9 16.2-.9 12.8 11.5 10 11.5 10M206.7 153.7s88.8-11.4 136.5 20.9c0 0 21.5 7.1 15.9-19.5l-43.5-14.8-40.5-10-68.4 23.4zM347 130.5s13.3 5 25.2 18.6l23.8 34.1s18.7 30.6 30.6 20.4c0 0 10-8.5 5.9-19.6l-37.2-48.4-35.3-17-13.4 1.5.4 10.4z"/><g><path fill="#FFF" d="M280.3 173.8h2.5v29.3h-2.5zM269.335 174.47l2.49-.218 2.553 29.189-2.49.217zM258.463 175.953l2.462-.434 5.087 28.854-2.462.434zM247.736 178.432l2.415-.647 7.583 28.301-2.415.647zM237.285 181.933l2.35-.855 10.02 27.533-2.35.855zM227.141 186.23l2.266-1.056 12.382 26.555-2.266 1.056zM217.466 191.39l2.165-1.25 14.65 25.373-2.165 1.25zM208.258 197.376l2.048-1.434 16.807 24.003-2.048 1.434zM199.574 204.133l1.915-1.607 18.834 22.444-1.915 1.607zM191.54 211.704l1.768-1.768 20.718 20.718-1.768 1.768zM184.277 219.842l1.607-1.916 22.447 18.834-1.607 1.916zM177.586 228.697l1.434-2.048 24 16.807-1.434 2.047zM171.786 238.015l1.25-2.165 25.374 14.65-1.25 2.165zM166.78 247.815l1.056-2.266 26.554 12.383-1.056 2.265zM162.696 257.994l.855-2.35 27.533 10.021-.855 2.35zM159.514 268.503l.647-2.414 28.301 7.582-.647 2.415zM157.247 279.257l.434-2.462 28.855 5.087-.434 2.462zM155.887 290.211l.218-2.49 29.189 2.554-.218 2.49zM155.5 298.7h29.3v2.5h-29.3zM155.844 309.675l29.188-2.547.218 2.49-29.189 2.548zM157.204 320.576l28.854-5.096.435 2.462-28.855 5.096zM159.454 331.328l28.3-7.583.648 2.414-28.301 7.583zM162.644 341.878l27.533-10.017.855 2.349-27.534 10.018zM166.825 352.088l26.552-12.388 1.057 2.265-26.552 12.388zM171.723 361.922l25.377-14.647 1.25 2.166-25.377 14.647zM177.62 371.208l24.008-16.798 1.434 2.049-24.009 16.797zM184.202 380.008l22.444-18.837 1.607 1.915-22.443 18.837zM191.573 388.189l20.718-20.718 1.768 1.768-20.718 20.718z"/><g fill="#FFF"><path d="m199.603 395.78 18.837-22.444 1.915 1.607-18.837 22.444zM342.902 224.983l18.837-22.444 1.915 1.607-18.837 22.444z"/></g><g fill="#FFF"><path d="m208.25 402.572 16.799-24.009 2.048 1.434-16.798 24.008zM336.17 219.932l16.797-24.009 2.048 1.434-16.797 24.008z"/></g><path fill="#FFF" d="m328.901 215.428 14.648-25.377 2.165 1.25-14.647 25.377zM321.346 211.611l12.388-26.551 2.266 1.057-12.388 26.551zM313.521 208.522l10.018-27.533 2.35.855-10.018 27.533zM305.443 206.113l7.583-28.301 2.415.647-7.583 28.3zM297.193 204.384l5.095-28.855 2.462.435-5.095 28.855zM288.776 203.36l2.547-29.188 2.49.217-2.547 29.19z"/></g><g><linearGradient id="d-4" gradientUnits="userSpaceOnUse" x1="293.705" y1="107.116" x2="541.259" y2="107.116"><stop offset="0" style="stop-color:#072f42"/><stop offset=".428" style="stop-color:#315fa7"/><stop offset="1" style="stop-color:#559fd7"/></linearGradient><path fill="url(#d-4)" d="M293.7 10.9v12.7c113.4 2.4 209.1 77.3 241.4 179.7 2.6-3.1 4.6-7.9 5.8-14.8.3-2 .3-4.2.2-6.3-38.8-98.6-134.8-169-247.4-171.3z"/><linearGradient id="e-5" gradientUnits="userSpaceOnUse" x1="293.705" y1="121.374" x2="525.031" y2="121.374"><stop offset="0" style="stop-color:#072f42"/><stop offset=".428" style="stop-color:#315fa7"/><stop offset="1" style="stop-color:#559fd7"/></linearGradient><path fill="url(#e-5)" d="M510.2 203.9c5.3 2.6 10.4 4.3 14.9 4.2C494.6 109.4 402.7 37 293.7 34.6v12.5c100.4 2.3 185.3 67.3 216.5 156.8z"/><linearGradient id="f-6" gradientUnits="userSpaceOnUse" x1="0" y1="226.303" x2="282.665" y2="226.303"><stop offset="0" style="stop-color:#072f42"/><stop offset=".428" style="stop-color:#315fa7"/><stop offset="1" style="stop-color:#559fd7"/></linearGradient><path fill="url(#f-6)" d="M29.6 279.4c0-139.3 113-252.9 253.1-255.8V0c-24.1-.2-92.9 3.3-154.5 44.9C51.9 96.3 20.1 161.6 6.8 216c-13.3 54.4-5.3 119 7.4 156.6 12.7 37.6 42.6 80.1 42.6 80.1-7.5-32-11.4-61.1-12.2-87.3-9.7-27-15-55.9-15-86z"/></g><g><linearGradient id="g-7" gradientUnits="userSpaceOnUse" x1="104.27" y1="148.789" x2="432.531" y2="148.789"><stop offset="0" style="stop-color:#072f42"/><stop offset=".428" style="stop-color:#315fa7"/><stop offset="1" style="stop-color:#559fd7"/></linearGradient><path fill="url(#g-7)" d="M277.7 93.2c-76.8 0-143.2 45.6-173.4 111.2.7-.5 1.3-1.1 1.9-1.6 51.9-40.5 77.8-47.1 135.7-54.3 57.8-7.2 97.3 16.8 101.9 18.9 11.8 5.4 17.1-5 15.4-12.3-1.2-5-7.1-12.5-10.4-16.4-1.9-2.3-2.7-5.5-1.7-8.3 1.5-3.9 5.9-6.9 19.3 2.7 21 15.1 41 64 53.2 64h.6c8.5-.2 14.3-8.6 11.9-16.8-1.7-5.8-4.8-12.6-7.9-18.6-35.1-41.8-87.7-68.5-146.5-68.5z"/><linearGradient id="h-8" gradientUnits="userSpaceOnUse" x1="40.611" y1="181.491" x2="494.753" y2="181.491"><stop offset="0" style="stop-color:#072f42"/><stop offset=".428" style="stop-color:#315fa7"/><stop offset="1" style="stop-color:#559fd7"/></linearGradient><path fill="url(#h-8)" d="M288.2 58.1h-5.5V34.6c-134 2.9-242.1 111.5-242.1 244.7 0 16.8 1.7 33.1 5 49 4-45.3 18.5-80 39.5-105.1C111 141.5 187.5 82.1 277.7 82.1c54.7 0 104.4 21.9 140.8 57.4 18.5 16 65.6 48.9 68.2 49.1 2.3.3-45.7-40.3-44.2-38.6l6.6 5.9 34.3 30.5c3.6 2.6 7.4 5.4 11.3 8.1-33.7-80-113.6-136.4-206.5-136.4z"/></g><g><linearGradient id="i-9" gradientUnits="userSpaceOnUse" x1="519.157" y1="440.554" x2="519.314" y2="440.825"><stop offset="0" style="stop-color:#559fd7"/><stop offset=".343" style="stop-color:#315fa7"/><stop offset=".476" style="stop-color:#2b5898"/><stop offset=".73" style="stop-color:#1b4672"/><stop offset="1" style="stop-color:#072f42"/></linearGradient><path fill="url(#i-9)" d="M519.4 440.4c-.1.2-.2.3-.3.5.1-.1.2-.3.3-.5z"/><linearGradient id="j-10" gradientUnits="userSpaceOnUse" x1="518.479" y1="441.307" x2="518.959" y2="442.138"><stop offset="0" style="stop-color:#559fd7"/><stop offset=".343" style="stop-color:#315fa7"/><stop offset=".476" style="stop-color:#2b5898"/><stop offset=".73" style="stop-color:#1b4672"/><stop offset="1" style="stop-color:#072f42"/></linearGradient><path fill="url(#j-10)" d="M519.1 440.9c-.3.7-.6 1.2-.8 1.6.3-.5.5-1 .8-1.6z"/><linearGradient id="k-11" gradientUnits="userSpaceOnUse" x1="517.989" y1="442.699" x2="518.249" y2="443.148"><stop offset="0" style="stop-color:#559fd7"/><stop offset=".343" style="stop-color:#315fa7"/><stop offset=".476" style="stop-color:#2b5898"/><stop offset=".73" style="stop-color:#1b4672"/><stop offset="1" style="stop-color:#072f42"/></linearGradient><path fill="url(#k-11)" d="M518.3 442.5c-.2.4-.3.7-.4.8.1-.1.2-.4.4-.8z"/><linearGradient id="l-12" gradientUnits="userSpaceOnUse" x1="517.843" y1="443.382" x2="517.893" y2="443.468"><stop offset="0" style="stop-color:#559fd7"/><stop offset=".343" style="stop-color:#315fa7"/><stop offset=".476" style="stop-color:#2b5898"/><stop offset=".73" style="stop-color:#1b4672"/><stop offset="1" style="stop-color:#072f42"/></linearGradient><path fill="url(#l-12)" d="M517.9 443.3c-.1.3-.1.2 0 0z"/><linearGradient id="m-13" gradientUnits="userSpaceOnUse" x1="80.272" y1="232.12" x2="234.502" y2="499.254"><stop offset="0" style="stop-color:#559fd7"/><stop offset=".343" style="stop-color:#315fa7"/><stop offset=".476" style="stop-color:#2b5898"/><stop offset=".73" style="stop-color:#1b4672"/><stop offset="1" style="stop-color:#072f42"/></linearGradient><path fill="url(#m-13)" d="M274.5 476.1c-38.3-11.8-66.7-30.3-82.8-46.1-5.8-5.7-9.5-10.9-11.9-15.3-1-1.9-3.4-5.1-6.8-13.6l-2.7-9.4c-.8-2.9-1.6-5.8-2.2-8.7l-6.1-26.5-1-5.5c-.1-.6-.3-1.2-.6-1.8-6.7-14.4-17-1.2-17-1.2-2.6 6.3-3.6 11.9-3.5 16.7 0 4.6-5.7 6.6-8.5 3-17.5-22.6-41.8-65.8-17.8-110.8.4-.6 20.8-30.1-5.8-35.8-3.3-.7-6.6-.5-9.8.6-7 19.9-10.9 41.2-10.9 63.4 0 104.3 83.8 189.2 187.4 191z"/><linearGradient id="n-14" gradientUnits="userSpaceOnUse" x1="519.655" y1="439.478" x2="519.854" y2="439.822"><stop offset="0" style="stop-color:#559fd7"/><stop offset=".343" style="stop-color:#315fa7"/><stop offset=".476" style="stop-color:#2b5898"/><stop offset=".73" style="stop-color:#1b4672"/><stop offset="1" style="stop-color:#072f42"/></linearGradient><path fill="url(#n-14)" d="M519.9 439.3s-.1.3-.3.6c.1-.1.2-.3.3-.6z"/><linearGradient id="o-15" gradientUnits="userSpaceOnUse" x1="519.407" y1="440.08" x2="519.549" y2="440.328"><stop offset="0" style="stop-color:#559fd7"/><stop offset=".343" style="stop-color:#315fa7"/><stop offset=".476" style="stop-color:#2b5898"/><stop offset=".73" style="stop-color:#1b4672"/><stop offset="1" style="stop-color:#072f42"/></linearGradient><path fill="url(#o-15)" d="M519.6 440c-.1.2-.2.3-.2.5 0-.2.1-.4.2-.5z"/><linearGradient id="p-16" gradientUnits="userSpaceOnUse" x1="518.884" y1="429.084" x2="518.9" y2="429.111"><stop offset="0" style="stop-color:#559fd7"/><stop offset=".343" style="stop-color:#315fa7"/><stop offset=".476" style="stop-color:#2b5898"/><stop offset=".73" style="stop-color:#1b4672"/><stop offset="1" style="stop-color:#072f42"/></linearGradient><path fill="url(#p-16)" d="m518.8 429.2.1-.1-.1.1z"/></g><g><linearGradient id="q-17" gradientUnits="userSpaceOnUse" x1="123.862" y1="209.335" x2="318.009" y2="545.607"><stop offset="0" style="stop-color:#559fd7"/><stop offset=".343" style="stop-color:#315fa7"/><stop offset=".476" style="stop-color:#2b5898"/><stop offset=".73" style="stop-color:#1b4672"/><stop offset="1" style="stop-color:#072f42"/></linearGradient><path fill="url(#q-17)" d="M288.2 524.3c56.2 0 108.1-18.7 149.7-50-47.2 15.2-88 13.9-93 13.7-11.9-.4-23.2-1.6-34.1-3.4-10.7 1.8-21.7 2.7-32.8 2.7-111.4 0-202-90.6-202-202 0-18.1 2.4-35.7 6.9-52.4-16.8 19.6-30.4 61.6-33.1 112.6 29.4 103 125.1 178.8 238.4 178.8z"/><linearGradient id="r-18" gradientUnits="userSpaceOnUse" x1="205.153" y1="291.753" x2="362.896" y2="564.972"><stop offset="0" style="stop-color:#559fd7"/><stop offset=".343" style="stop-color:#315fa7"/><stop offset=".476" style="stop-color:#2b5898"/><stop offset=".73" style="stop-color:#1b4672"/><stop offset="1" style="stop-color:#072f42"/></linearGradient><path fill="url(#r-18)" d="M515.2 432.2c-14.6 12.3-30.1 21.9-45.7 29.4-46.7 45.5-110.7 73.7-181.3 73.7-106.2 0-197.6-63.7-237.4-154.4.3 4.3.7 9.1 1.3 14.2.6 6.3 1.5 13.3 2.5 20.9.6 4.2.5 4 1.2 8.6 1.4 9.1 5.6 24.3 15 39.5 2.6 4.2 5.4 8.3 8.1 12 1.1 1.5 2.2 2.9 3.4 4.2l18.4 19.8c54 45.7 112.5 57.9 112.5 57.9 50.4 13.8 100.6 7.1 100.6 7.1 42-4.6 74.7-18.5 74.7-18.5 47-18 76.7-45.9 76.7-45.9 28.3-21.3 54.7-61.3 54.7-61.3 4.7-9.5-4.7-7.2-4.7-7.2z"/></g></svg>