<svg xmlns="http://www.w3.org/2000/svg" viewBox="0 0 1060.7 399.9" xml:space="preserve" class="injected-svg" data-src="/svg/iliad-logo-web.svg" xmlns:xlink="http://www.w3.org/1999/xlink"><g fill="#3560A8"><path d="M438.3 108.6c0-6.7 1.9-12 5.8-15.6 3.9-3.7 9.9-5.5 18-5.5 8.2 0 14.3 1.8 18.2 5.5 3.9 3.7 5.8 8.9 5.8 15.6v196.7c0 6.8-1.9 12-5.8 15.6-3.9 3.7-10 5.5-18.2 5.5-8.1 0-14.1-1.8-18-5.5-3.9-3.7-5.8-8.9-5.8-15.6V108.6zM531.1 91.4c0-6.5 1.9-11.6 5.7-15.2 3.8-3.6 9.7-5.4 17.6-5.4 7.9 0 13.8 1.8 17.6 5.4 3.8 3.6 5.7 8.7 5.7 15.2V268c0 4.5.3 8.2.9 11.2.6 3 1.4 5.3 2.5 7 1.1 1.7 2.4 2.9 3.9 3.6 1.5.7 3.1 1 5 1 1.6 0 3-.1 4.3-.3 1.3-.2 2.5-.3 3.8-.3 1.5 0 2.9.3 4.3.9 1.4.6 2.6 1.4 3.6 2.6 1 1.1 1.9 2.5 2.5 4.2.6 1.7.9 3.6.9 5.7 0 3.3-.5 6.1-1.5 8.4-1 2.3-2.3 4.3-4 6-1.1 1.1-2.5 2.2-4.1 3.3-1.6 1-3.5 2-5.7 2.8-2.2.9-4.9 1.5-8 2.1-3.1.5-6.6.8-10.6.8-14.5 0-25.5-3.9-33-11.6-7.5-7.7-11.2-19.4-11.2-35.1V91.4zM631.6 170c0-6.5 1.9-11.6 5.7-15.2 3.8-3.6 9.7-5.4 17.6-5.4 7.9 0 13.8 1.8 17.6 5.4 3.8 3.6 5.7 8.7 5.7 15.2v135.7c0 6.5-1.9 11.6-5.7 15.2-3.8 3.6-9.7 5.4-17.6 5.4-7.9 0-13.8-1.8-17.6-5.4-3.8-3.6-5.7-8.7-5.7-15.2V170zM816.3 213.6c0-5.5-.6-10.1-1.9-14-1.3-3.9-3.3-7-6.1-9.5-2.8-2.4-6.5-4.3-11.2-5.5-4.6-1.2-10.3-1.8-16.9-1.8-7.1 0-13.1.5-18.1 1.5-5 1-9.3 2.2-13 3.5-3.7 1.3-6.8 2.5-9.5 3.5s-5.2 1.5-7.6 1.5c-4.1 0-7.5-1.3-10.2-3.9-2.7-2.6-4-6.5-4-11.5 0-2.6.4-4.9 1.2-6.9.8-1.9 2.2-3.9 4.1-5.8 1.8-1.8 4.8-3.8 8.8-5.8 4.1-2.1 9-3.9 14.8-5.7 5.8-1.7 12.4-3.1 19.8-4.3 7.4-1.1 15.5-1.7 24.2-1.7 23.9 0 41.9 5.2 53.9 15.5 12 10.4 18 25.4 18 45.2V264c0 7.8.3 14.1.9 18.9.6 4.8 1.3 8.8 2 12 .7 3.2 1.3 5.9 2 8 .6 2.1.9 4.4.9 6.8 0 2.4-.5 4.6-1.4 6.7-.9 2.1-2.2 3.9-3.9 5.4-1.7 1.5-3.9 2.7-6.4 3.6-2.6.9-5.5 1.3-8.8 1.3-3.5 0-6.7-.5-9.5-1.6s-5.3-2.6-7.4-4.5c-2.1-1.9-3.9-4.3-5.3-7s-2.6-5.6-3.5-8.8h-.5c-3.6 4.5-7.8 8.4-12.9 11.8-4.3 3-9.8 5.7-16.4 8.1-6.6 2.4-14.3 3.6-23.3 3.6-9.5 0-18-1.3-25.5-4s-13.8-6.4-19-11.2c-5.2-4.8-9.2-10.4-11.9-16.9s-4.1-13.6-4.1-21.3c0-8.3 1.8-15.5 5.5-21.8 3.7-6.3 8.8-11.5 15.4-15.7 6.6-4.2 14.6-7.3 24-9.5 9.4-2.1 19.8-3.2 31.4-3.2 4.8 0 9.1.2 13 .5 3.8.3 7.1.7 9.9 1 3.2.5 6.1 1 8.6 1.5v-14.1zm0 44.3c-2.3-.6-4.8-1.1-7.6-1.5-2.4-.5-5.2-.9-8.4-1.2-3.2-.3-6.8-.5-10.8-.5-11.4 0-19.9 1.6-25.5 4.8-5.6 3.2-8.3 7.9-8.3 14.1 0 3 .6 5.7 1.7 8.2 1.1 2.5 2.8 4.7 5 6.5 2.2 1.8 4.9 3.3 8.1 4.4 3.2 1.1 6.9 1.6 11.2 1.6 5.5 0 10.4-1 14.7-2.9 4.3-1.9 7.9-4.1 10.9-6.4 3.4-2.7 6.5-5.8 9.1-9.3v-17.8zM1014 91.4c0-6.5 1.9-11.6 5.7-15.2 3.8-3.6 9.7-5.4 17.6-5.4 7.9 0 13.8 1.8 17.6 5.4 3.8 3.6 5.7 8.7 5.7 15.2v216.1c0 6.3-1.7 11.1-5 14.4-3.3 3.3-8.1 5-14.4 5-3.1 0-5.8-.4-8.2-1.1-2.3-.7-4.3-1.8-6-3.3-1.7-1.4-3-3.2-4-5.2-1-2.1-1.8-4.4-2.2-7l-1.5-8.6h-.5c-3.4 5-7.7 9.5-12.7 13.4-4.3 3.3-9.9 6.4-16.6 9.2-6.7 2.8-14.7 4.2-24.1 4.2-10.8 0-20.5-1.8-29.3-5.4-8.8-3.6-16.4-9-22.7-16.1-6.3-7.1-11.2-16.1-14.6-26.8-3.4-10.7-5.1-23.2-5.1-37.5 0-15 2.2-28.4 6.5-40.2 4.3-11.8 10.7-21.9 19-30 8.3-8.2 18.5-14.4 30.6-18.7 12.1-4.3 26-6.4 41.7-6.4 3.3 0 6.4.1 9.1.4 2.7.3 5.1.6 7 .9 2.3.5 4.4.9 6.4 1.4l.5-.2c-.3-5.8-.5-12-.5-18.5v-40zm0 97.1c-1.9-1-4.2-1.9-6.9-2.7-2.3-.7-5.1-1.3-8.4-1.9-3.3-.6-7.2-.9-11.5-.9-6.9 0-13.1 1.2-18.7 3.5s-10.4 5.9-14.5 10.6c-4.1 4.7-7.2 10.5-9.4 17.5s-3.3 15.2-3.3 24.5c0 9.5.9 17.5 2.6 24.1 1.7 6.6 4.1 11.9 7.3 16 3.1 4.1 6.9 7.1 11.3 9 4.4 1.9 9.3 2.8 14.7 2.8 3.1 0 6-.3 8.7-1s5.2-1.6 7.5-2.8c2.3-1.2 4.4-2.5 6.3-4 1.9-1.5 3.6-3 5.2-4.6 3.7-3.7 6.7-7.8 9.3-12.5v-77.6z"/></g><linearGradient id="a-55" gradientUnits="userSpaceOnUse" x1="132.792" y1="277.53" x2="250.316" y2="209.678"><stop offset=".342" style="stop-color:#34a4dd"/><stop offset="1" style="stop-color:#cbdbf0"/></linearGradient><path fill="url(#a-55)" d="M161.4 311.8c-2.7-2.7-23.6-13.9-30.6-43.4s7.3-51.7 7.3-51.7 14.4-26.9 43.4-34.9 49.4 1.6 49.4 1.6c3.5 1.6 5.2 3.5 5.2 3.5 16.1 16.9-22.2 20.7-22.2 20.7s-22.7 2.2-36.6 27.4c-5.1 9.3-17.9 33.2-7.7 65.7l8.5 20.7-16.7-9.6z"/><path fill="#28789D" d="M154.3 265.5c-1.6-2-14.2-10.6-18.1-31.1-3.9-20.6 5-35.2 5-35.2s9.1-17.9 26.7-22.1c17.7-4.2 30 3.2 30 3.2 2.1 1.2 3.1 2.6 3.1 2.6 9.6 12.3-13.7 13.3-13.7 13.3s-13.8.5-22.5 17.2c-3.2 6.2-11.2 22.1-5.4 44.8l5 14.6-10.1-7.3z"/><linearGradient id="b-56" gradientUnits="userSpaceOnUse" x1="281.879" y1="445.312" x2="223.688" y2="433.138" gradientTransform="rotate(33.183 600.09 181.732)"><stop offset=".369" style="stop-color:#34a4dd"/><stop offset="1" style="stop-color:#8bd0ee"/></linearGradient><path fill="url(#b-56)" d="M149.8 251.2c-1.4-1.9-13.1-10.5-14.9-29.2s8.5-31.2 8.5-31.2 10.8-15.3 28.8-17.8 29.5 5.1 29.5 5.1c2 1.3 2.9 2.6 2.9 2.6 8.4 11.7-15 10.9-15 10.9s-13.8-.6-24.1 13.8c-3.8 5.3-13.3 18.9-9.8 39.7l3.5 13.4-9.4-7.3z"/><linearGradient id="c-57" gradientUnits="userSpaceOnUse" x1="147.396" y1="91.962" x2="293.295" y2="344.666"><stop offset="0" style="stop-color:#8bd0ee"/><stop offset=".265" style="stop-color:#5ab7e4"/><stop offset=".494" style="stop-color:#34a4dd"/><stop offset="1" style="stop-color:#3d80c2"/></linearGradient><path fill="url(#c-57)" d="M291.5 331.1c16.8-1.2 33.6-4.8 33.6-4.8-24 13.2-44.5 14.4-44.5 14.4-10.8 3.6-42.2 6.5-42.2 6.5s-24.2 3.3-54.5-4.3-60.8-31.2-64.8-37.3c-4-6.1-39-35.3-40.3-93-1.3-57.7 34.8-93.3 34.8-93.3s38.1-44.4 96.1-47.6 92.7 22.5 92.7 22.5c6.1 4.3 8.5 8.5 8.5 8.5 9.4 15 7 28.3.6 38.8-9.7 16.3-28.1 24.4-46.2 21.5-14.8-2.3-39.8-8.4-67.5 4.4-31.3 14.5-36.9 34.9-39.3 50.8-4 26 4.9 56.9 21.8 74.5 3.5 3.6 10.5 9.5 17.8 15 12.4 9.4 26.9 16.1 42.4 19.3 10.8 2.4 39.4 4.9 51 4.1z"/><path opacity=".8" fill="#072F42" d="M108.9 241.9s-7.3.3-12.1 6.3c0 0-3.5 2.4-4.2 11.4-.6 9 8.1 7.1 8.1 7.1M145.9 108.5s62.7-8.1 96.3 14.8c0 0 15.2 5 11.2-13.7l-30.7-10.4-28.6-7.2-48.2 16.5zM244.8 92.1s9.4 3.5 17.8 13.1l16.8 24s13.2 21.6 21.6 14.4c0 0 7.1-6 4.1-13.8L279 95.7l-24.9-12-9.5 1.1.2 7.3z"/><g><path fill="#FFF" d="M197.8 122.7h1.8v20.6h-1.8zM190.107 123.116l1.793-.157 1.795 20.522-1.793.157zM182.42 124.215l1.772-.312 3.576 20.287-1.773.312zM174.862 125.979l1.738-.466 5.332 19.898-1.739.465zM167.417 128.348l1.692-.616 7.045 19.358-1.692.616zM160.297 131.352l1.632-.76 8.705 18.67-1.631.76zM153.45 135.028l1.559-.9 10.3 17.84-1.56.9zM146.956 139.287l1.474-1.033 11.816 16.876-1.474 1.032zM140.877 144.062l1.379-1.157 13.241 15.78-1.379 1.157zM135.154 149.374l1.273-1.273 14.567 14.566-1.273 1.273zM130.034 155.14l1.157-1.38 15.781 13.242-1.157 1.38zM125.304 161.342l1.033-1.475 16.873 11.817-1.032 1.474zM121.204 167.952l.9-1.559 17.84 10.3-.9 1.559zM117.688 174.905l.76-1.632 18.67 8.706-.76 1.631zM114.765 182.06l.615-1.692 19.358 7.046-.615 1.691zM112.542 189.541l.466-1.738 19.897 5.331-.465 1.739zM110.958 197.05l.313-1.772 20.287 3.576-.313 1.773zM110.024 204.766l.157-1.793 20.522 1.796-.157 1.793zM109.7 210.8h20.6v1.8h-20.6zM109.958 218.501l20.522-1.79.156 1.793-20.522 1.79zM110.902 226.223l20.287-3.582.313 1.773-20.287 3.582zM112.507 233.805l19.898-5.332.465 1.74-19.897 5.33zM114.82 241.268l19.358-7.043.616 1.692-19.358 7.043zM117.677 248.457l18.668-8.71.76 1.631-18.667 8.71zM121.231 255.38l17.842-10.298.9 1.56-17.842 10.297zM125.366 261.962l16.88-11.81 1.031 1.475-16.88 11.81zM129.941 268.186l15.78-13.244 1.157 1.379-15.78 13.244zM135.189 273.946l14.566-14.567 1.273 1.273-14.567 14.567z"/><g fill="#FFF"><path d="m140.806 279.273 13.243-15.78 1.38 1.158-13.245 15.78zM241.999 158.706l13.244-15.78 1.379 1.158-13.244 15.78z"/></g><g fill="#FFF"><path d="m146.975 284.037 11.81-16.88 1.474 1.032-11.81 16.88zM237.175 155.173l11.81-16.88 1.475 1.032-11.81 16.88z"/></g><path fill="#FFF" d="m232.072 152.031 10.298-17.841 1.56.9-10.299 17.841zM226.84 149.31l8.709-18.668 1.631.76-8.71 18.669zM221.215 147.139l7.043-19.358 1.692.616-7.044 19.357zM215.575 145.392l5.331-19.897 1.739.466-5.332 19.897zM209.73 144.163l3.583-20.287 1.773.313-3.583 20.287zM203.8 143.467l1.791-20.521 1.793.156-1.79 20.522z"/></g><g><linearGradient id="d-58" gradientUnits="userSpaceOnUse" x1="207.26" y1="75.589" x2="381.952" y2="75.589"><stop offset="0" style="stop-color:#072f42"/><stop offset=".428" style="stop-color:#315fa7"/><stop offset="1" style="stop-color:#559fd7"/></linearGradient><path fill="url(#d-58)" d="M207.3 7.7v8.9c80 1.7 147.6 54.5 170.4 126.8 1.9-2.2 3.3-5.6 4.1-10.5.2-1.4.2-2.9.1-4.5C354.5 59 286.7 9.3 207.3 7.7z"/><linearGradient id="e-59" gradientUnits="userSpaceOnUse" x1="207.26" y1="85.651" x2="370.5" y2="85.651"><stop offset="0" style="stop-color:#072f42"/><stop offset=".428" style="stop-color:#315fa7"/><stop offset="1" style="stop-color:#559fd7"/></linearGradient><path fill="url(#e-59)" d="M360 143.9c3.8 1.9 7.3 3 10.5 2.9C349 77.2 284.2 26.1 207.3 24.4v8.8C278.1 34.9 338 80.7 360 143.9z"/><linearGradient id="f-60" gradientUnits="userSpaceOnUse" x1="0" y1="159.696" x2="199.469" y2="159.696"><stop offset="0" style="stop-color:#072f42"/><stop offset=".428" style="stop-color:#315fa7"/><stop offset="1" style="stop-color:#559fd7"/></linearGradient><path fill="url(#f-60)" d="M20.9 197.2c0-98.3 79.8-178.4 178.6-180.5V0c-17-.1-65.6 2.4-109.1 31.7C36.7 68 14.2 114 4.8 152.4c-9.4 38.4-3.7 84 5.2 110.5s30.1 56.5 30.1 56.5c-5.3-22.6-8-43.1-8.6-61.6-6.9-19-10.6-39.4-10.6-60.6z"/></g><g><linearGradient id="g-61" gradientUnits="userSpaceOnUse" x1="73.581" y1="104.996" x2="305.226" y2="104.996"><stop offset="0" style="stop-color:#072f42"/><stop offset=".428" style="stop-color:#315fa7"/><stop offset="1" style="stop-color:#559fd7"/></linearGradient><path fill="url(#g-61)" d="M196 65.8c-54.2 0-101 32.2-122.4 78.5.5-.4.9-.8 1.4-1.1 36.6-28.6 54.9-33.2 95.7-38.3 40.8-5.1 68.7 11.9 71.9 13.4 8.3 3.8 12.1-3.5 10.8-8.7-.9-3.5-5-8.8-7.4-11.6-1.4-1.6-1.9-3.9-1.2-5.8 1-2.8 4.2-4.9 13.6 1.9 14.8 10.7 28.9 45.2 37.6 45.2h.4c6-.2 10.1-6.1 8.4-11.8-1.2-4.1-3.4-8.9-5.5-13.1-24.7-29.8-61.9-48.6-103.3-48.6z"/><linearGradient id="h-62" gradientUnits="userSpaceOnUse" x1="28.658" y1="128.073" x2="349.134" y2="128.073"><stop offset="0" style="stop-color:#072f42"/><stop offset=".428" style="stop-color:#315fa7"/><stop offset="1" style="stop-color:#559fd7"/></linearGradient><path fill="url(#h-62)" d="M203.4 41h-3.9V24.4C105 26.5 28.7 103.1 28.7 197.1c0 11.8 1.2 23.4 3.5 34.5 2.8-32 13.1-56.5 27.9-74.1C78.3 99.9 132.3 58 196 58c38.6 0 73.7 15.5 99.4 40.5 13.1 11.3 46.3 34.5 48.1 34.7 1.6.2-32.3-28.5-31.2-27.3l4.7 4.2 24.2 21.5c2.6 1.9 5.2 3.8 7.9 5.7C325.3 80.8 269 41 203.4 41z"/></g><g><linearGradient id="i-63" gradientUnits="userSpaceOnUse" x1="366.355" y1="310.887" x2="366.466" y2="311.078"><stop offset="0" style="stop-color:#559fd7"/><stop offset=".343" style="stop-color:#315fa7"/><stop offset=".476" style="stop-color:#2b5898"/><stop offset=".73" style="stop-color:#1b4672"/><stop offset="1" style="stop-color:#072f42"/></linearGradient><path fill="url(#i-63)" d="M366.5 310.8c-.1.1-.1.2-.2.4.1-.1.1-.3.2-.4z"/><linearGradient id="j-64" gradientUnits="userSpaceOnUse" x1="365.876" y1="311.418" x2="366.215" y2="312.005"><stop offset="0" style="stop-color:#559fd7"/><stop offset=".343" style="stop-color:#315fa7"/><stop offset=".476" style="stop-color:#2b5898"/><stop offset=".73" style="stop-color:#1b4672"/><stop offset="1" style="stop-color:#072f42"/></linearGradient><path fill="url(#j-64)" d="M366.3 311.2c-.2.5-.4.8-.6 1.1.2-.4.4-.8.6-1.1z"/><linearGradient id="k-65" gradientUnits="userSpaceOnUse" x1="365.531" y1="312.4" x2="365.714" y2="312.717"><stop offset="0" style="stop-color:#559fd7"/><stop offset=".343" style="stop-color:#315fa7"/><stop offset=".476" style="stop-color:#2b5898"/><stop offset=".73" style="stop-color:#1b4672"/><stop offset="1" style="stop-color:#072f42"/></linearGradient><path fill="url(#k-65)" d="M365.8 312.3c-.1.3-.2.5-.3.6 0-.2.1-.4.3-.6z"/><linearGradient id="l-66" gradientUnits="userSpaceOnUse" x1="365.428" y1="312.882" x2="365.463" y2="312.943"><stop offset="0" style="stop-color:#559fd7"/><stop offset=".343" style="stop-color:#315fa7"/><stop offset=".476" style="stop-color:#2b5898"/><stop offset=".73" style="stop-color:#1b4672"/><stop offset="1" style="stop-color:#072f42"/></linearGradient><path fill="url(#l-66)" d="M365.5 312.9c-.1.1-.1.1 0 0z"/><linearGradient id="m-67" gradientUnits="userSpaceOnUse" x1="56.645" y1="163.8" x2="165.482" y2="352.31"><stop offset="0" style="stop-color:#559fd7"/><stop offset=".343" style="stop-color:#315fa7"/><stop offset=".476" style="stop-color:#2b5898"/><stop offset=".73" style="stop-color:#1b4672"/><stop offset="1" style="stop-color:#072f42"/></linearGradient><path fill="url(#m-67)" d="M193.7 336c-27-8.3-47.1-21.4-58.5-32.5-4.1-4-6.7-7.7-8.4-10.8-.7-1.3-2.4-3.6-4.8-9.6l-1.9-6.6c-.6-2-1.1-4.1-1.6-6.1l-4.3-18.7-.7-3.9c-.1-.4-.2-.9-.4-1.3-4.7-10.2-12-.8-12-.8-1.9 4.4-2.5 8.4-2.5 11.8 0 3.2-4 4.7-6 2.1-12.3-15.9-29.5-46.5-12.5-78.2.3-.5 14.7-21.3-4.1-25.2-2.3-.5-4.6-.3-6.9.4-4.9 14-7.7 29.1-7.7 44.7.1 73.5 59.2 133.4 132.3 134.7z"/><linearGradient id="n-68" gradientUnits="userSpaceOnUse" x1="366.707" y1="310.128" x2="366.847" y2="310.37"><stop offset="0" style="stop-color:#559fd7"/><stop offset=".343" style="stop-color:#315fa7"/><stop offset=".476" style="stop-color:#2b5898"/><stop offset=".73" style="stop-color:#1b4672"/><stop offset="1" style="stop-color:#072f42"/></linearGradient><path fill="url(#n-68)" d="M366.9 310s-.1.2-.2.5c0-.2.1-.3.2-.5z"/><linearGradient id="o-69" gradientUnits="userSpaceOnUse" x1="366.531" y1="310.553" x2="366.632" y2="310.727"><stop offset="0" style="stop-color:#559fd7"/><stop offset=".343" style="stop-color:#315fa7"/><stop offset=".476" style="stop-color:#2b5898"/><stop offset=".73" style="stop-color:#1b4672"/><stop offset="1" style="stop-color:#072f42"/></linearGradient><path fill="url(#o-69)" d="M366.7 310.5c-.1.1-.1.2-.2.3.1-.1.1-.2.2-.3z"/><linearGradient id="p-70" gradientUnits="userSpaceOnUse" x1="366.162" y1="302.793" x2="366.173" y2="302.812"><stop offset="0" style="stop-color:#559fd7"/><stop offset=".343" style="stop-color:#315fa7"/><stop offset=".476" style="stop-color:#2b5898"/><stop offset=".73" style="stop-color:#1b4672"/><stop offset="1" style="stop-color:#072f42"/></linearGradient><path fill="url(#p-70)" d="M366.1 302.8c.1 0 .1 0 0 0 .1 0 0 0 0 0z"/></g><g><linearGradient id="q-71" gradientUnits="userSpaceOnUse" x1="87.406" y1="147.722" x2="224.41" y2="385.02"><stop offset="0" style="stop-color:#559fd7"/><stop offset=".343" style="stop-color:#315fa7"/><stop offset=".476" style="stop-color:#2b5898"/><stop offset=".73" style="stop-color:#1b4672"/><stop offset="1" style="stop-color:#072f42"/></linearGradient><path fill="url(#q-71)" d="M203.4 370c39.7 0 76.3-13.2 105.6-35.3-33.3 10.7-62.1 9.8-65.6 9.7-8.4-.3-16.4-1.2-24-2.4-7.5 1.2-15.3 1.9-23.2 1.9-78.6 0-142.5-63.9-142.5-142.5 0-12.8 1.7-25.2 4.9-37-11.9 13.9-21.4 43.4-23.4 79.5C55.9 316.5 123.4 370 203.4 370z"/><linearGradient id="r-72" gradientUnits="userSpaceOnUse" x1="144.771" y1="205.882" x2="256.086" y2="398.685"><stop offset="0" style="stop-color:#559fd7"/><stop offset=".343" style="stop-color:#315fa7"/><stop offset=".476" style="stop-color:#2b5898"/><stop offset=".73" style="stop-color:#1b4672"/><stop offset="1" style="stop-color:#072f42"/></linearGradient><path fill="url(#r-72)" d="M363.6 305c-10.3 8.7-21.3 15.5-32.3 20.8-33 32.1-78.2 52-128 52-74.9 0-139.4-44.9-167.5-109 .2 3.1.5 6.4.9 10 .5 4.5 1 9.4 1.7 14.8.4 3 .3 2.8.8 6.1 1 6.4 3.9 17.2 10.6 27.9 1.8 3 3.8 5.8 5.7 8.4.7 1 1.6 2 2.4 3l13 13.9c38.1 32.2 79.4 40.9 79.4 40.9 35.6 9.7 71 5 71 5 29.7-3.2 52.7-13.1 52.7-13.1 33.1-12.7 54.1-32.4 54.1-32.4 20-15.1 38.6-43.3 38.6-43.3 3.5-6.6-3.1-5-3.1-5z"/></g><circle fill="#3560A8" cx="654.7" cy="109.2" r="23"/></svg>